<?xml version="1.0" encoding="UTF-8" standalone="no"?>
<!-- Created with Sodipodi ("http://www.sodipodi.com/") -->

<svg
   xmlns:dc="http://purl.org/dc/elements/1.1/"
   xmlns:cc="http://creativecommons.org/ns#"
   xmlns:rdf="http://www.w3.org/1999/02/22-rdf-syntax-ns#"
   xmlns:svg="http://www.w3.org/2000/svg"
   xmlns="http://www.w3.org/2000/svg"
   xmlns:xlink="http://www.w3.org/1999/xlink"
   xmlns:sodipodi="http://sodipodi.sourceforge.net/DTD/sodipodi-0.dtd"
   xmlns:inkscape="http://www.inkscape.org/namespaces/inkscape"
   id="svg559"
   sodipodi:version="0.33"
   width="64"
   height="64"
   sodipodi:docname="rtcw-mp.svg"
   version="1.1"
   inkscape:version="0.48.5 r10040">
  <metadata
     id="metadata16">
    <rdf:RDF>
      <cc:Work
         rdf:about="">
        <dc:format>image/svg+xml</dc:format>
        <dc:type
           rdf:resource="http://purl.org/dc/dcmitype/StillImage" />
        <dc:title></dc:title>
      </cc:Work>
    </rdf:RDF>
  </metadata>
  <defs
     id="defs561">
    <linearGradient
       id="linearGradient563">
      <stop
         style="stop-color:#000;stop-opacity:1;"
         offset="0"
         id="stop564" />
      <stop
         style="stop-color:#fff;stop-opacity:1;"
         offset="1"
         id="stop565" />
    </linearGradient>
    <linearGradient
       xlink:href="#linearGradient563"
       id="linearGradient566" />
    <radialGradient
       xlink:href="#linearGradient563"
       id="radialGradient567"
       cx="0.5"
       cy="0.5"
       r="0.5"
       fx="0.5"
       fy="0.5" />
    <linearGradient
       xlink:href="#linearGradient563"
       id="linearGradient576" />
  </defs>
  <sodipodi:namedview
     id="base"
     showgrid="false"
     inkscape:zoom="5.7539546"
     inkscape:cx="26.075952"
     inkscape:cy="34.119357"
     inkscape:window-width="835"
     inkscape:window-height="464"
     inkscape:window-x="252"
     inkscape:window-y="101"
     inkscape:window-maximized="0"
     inkscape:current-layer="svg559"
     fit-margin-top="0"
     fit-margin-left="0"
     fit-margin-right="0"
     fit-margin-bottom="0" />
  <path
     style="font-size:12px;fill:#7f7f7f;fill-opacity:1;fill-rule:evenodd;stroke:none"
     d="m 33.744505,25.99318 2e-5,-4.84906 c -0.6148,-0.006 -0.94211,0.11355 -1.60124,0.16284 0.0296,-1.52123 -0.41404,-3.59425 3.51566,-3.90291 5.4229,-0.61374 4.0931,-0.68738 4.6448,-0.68588 l 0.0146,3.87672 21.68187,-0.0262 -10.81321,9.621479 -11.20398,10e-4 -0.009,9.66065 -6.17461,5.53979 -2.9e-4,-2.56138 -4.87818,4.45164 -0.0288,-6.30591 -4.82124,4.32918 -0.0539,-15.11397 -11.20398,-10e-4 -10.81324,-9.621479 21.6819,0.0262 0.0146,-3.87672 c 0.5517,-0.002 -0.7781,0.0721 4.64479,0.68588 3.9297,0.30866 3.48605,2.38168 3.51567,3.90291 -0.65913,-0.0493 -0.98645,-0.16888 -1.60125,-0.16284 l 2e-5,4.84906 3.48856,0 z"
     id="path587"
     sodipodi:nodetypes="cccccccccccccccccccccccc"
     inkscape:connector-curvature="0" />
  <g
     id="g572"
     style="fill:#000000;fill-opacity:1"
     transform="matrix(0.05936508,0,0,0.05936508,1.999465,16.51539)">
    <path
       style="fill:#000000;fill-opacity:1;fill-rule:evenodd;stroke:none"
       d="m 453.8335,161.0548 -319.0943,1.682 -32.2371,-28.9664 158.9408,0 15.3706,-13.9221 -189.93845,0.0471 -34.79499,-30.48542 305.22904,0.07065 -40.177,36.72147 70.2664,0.3739 -0.9346,-98.20465 39.5154,5.41794 c 8.9087,1.27674 31.9661,4.14009 37.1951,5.79308 14.7053,4.58946 21.1521,18.64658 17.6627,21.02581 -1.6928,1.13853 -3.0786,-0.90527 -8.0345,-0.84095 -8.6528,0.11108 -19.193,8.44639 -19.1559,23.82549 l 0.1868,77.46208 z"
       id="path573"
       sodipodi:nodetypes="ccccccccccccssssc"
       inkscape:connector-curvature="0" />
    <path
       style="fill:#000000;fill-opacity:1;fill-rule:evenodd;stroke:none"
       d="m 153.8003,180.3031 300.781,0.1866 -0.8409,169.9665 21.1521,-19.7624 -0.3563,-150.1343 61.6317,-0.0349 -0.4568,170.3247 21.2215,-20.3858 -0.3634,-149.892 300.6077,-0.2475 -37.6038,31.9264 -202.1491,0.3425 0.2128,174.6112 -60.3356,53.233 -0.3478,-74.2179 -21.4489,19.2792 0.0419,31.8934 -60.6934,52.9171 0.1682,-104.6223 -81.7831,73.7239 -0.7944,-226.1236 -201.2673,-0.1865 -37.3761,-32.7973 z"
       id="path575"
       sodipodi:nodetypes="ccccccccccccccccccccccc"
       inkscape:connector-curvature="0" />
    <path
       style="fill:#000000;fill-opacity:1;fill-rule:evenodd;stroke:none"
       d="m 556.887,161.0548 319.0943,1.682 32.2371,-28.9664 -158.9408,0 -15.3706,-13.9221 189.9384,0.0471 34.795,-30.48542 -305.229,0.07065 40.177,36.72147 -70.2664,0.3739 0.9346,-98.20465 -39.5154,5.41794 c -8.9087,1.27674 -31.9661,4.14009 -37.1951,5.79308 -14.7053,4.58946 -21.1521,18.64658 -17.6627,21.02581 1.6928,1.13853 3.0786,-0.90527 8.0345,-0.84095 8.6528,0.11108 19.193,8.44639 19.1559,23.82549 l -0.1868,77.46208 z"
       id="path576"
       sodipodi:nodetypes="ccccccccccccssssc"
       inkscape:connector-curvature="0" />
  </g>
</svg>
