<?xml version="1.0" encoding="UTF-8" standalone="no"?>
<!-- Created with Inkscape (http://www.inkscape.org/) -->

<svg
   xmlns:dc="http://purl.org/dc/elements/1.1/"
   xmlns:cc="http://creativecommons.org/ns#"
   xmlns:rdf="http://www.w3.org/1999/02/22-rdf-syntax-ns#"
   xmlns:svg="http://www.w3.org/2000/svg"
   xmlns="http://www.w3.org/2000/svg"
   xmlns:xlink="http://www.w3.org/1999/xlink"
   xmlns:sodipodi="http://sodipodi.sourceforge.net/DTD/sodipodi-0.dtd"
   xmlns:inkscape="http://www.inkscape.org/namespaces/inkscape"
   width="32px"
   height="32px"
   id="svg2993"
   version="1.1"
   inkscape:version="0.48.4 r9939"
   sodipodi:docname="wolf4sdl.svg">
  <title
     id="title3880">wolf3d icon</title>
  <defs
     id="defs2995">
    <linearGradient
       id="linearGradient3814">
      <stop
         style="stop-color:#ff7d7d;stop-opacity:1;"
         offset="0"
         id="stop3816" />
      <stop
         id="stop3818"
         offset="0.20312501"
         style="stop-color:#590000;stop-opacity:1;" />
      <stop
         id="stop3820"
         offset="0.328125"
         style="stop-color:#000000;stop-opacity:1;" />
      <stop
         style="stop-color:#ffffff;stop-opacity:1;"
         offset="0.42187497"
         id="stop3822" />
      <stop
         id="stop3824"
         offset="1"
         style="stop-color:#555555;stop-opacity:1;" />
    </linearGradient>
    <linearGradient
       y2="-258.17926"
       x2="-300.02075"
       y1="-166.01627"
       x1="-300.02075"
       gradientTransform="matrix(0.33655928,0,0,0.34721102,100.47477,89.642679)"
       gradientUnits="userSpaceOnUse"
       id="linearGradient3019"
       xlink:href="#linearGradient3814"
       inkscape:collect="always" />
  </defs>
  <sodipodi:namedview
     id="base"
     pagecolor="#ffffff"
     bordercolor="#666666"
     borderopacity="1.0"
     inkscape:pageopacity="0.0"
     inkscape:pageshadow="2"
     inkscape:zoom="20"
     inkscape:cx="4.7204988"
     inkscape:cy="16.919695"
     inkscape:current-layer="layer1"
     showgrid="true"
     inkscape:grid-bbox="true"
     inkscape:document-units="px"
     inkscape:snap-bbox="false"
     inkscape:bbox-paths="false"
     inkscape:bbox-nodes="false"
     inkscape:snap-bbox-edge-midpoints="true"
     inkscape:snap-bbox-midpoints="true"
     inkscape:snap-global="true"
     inkscape:window-width="1600"
     inkscape:window-height="841"
     inkscape:window-x="0"
     inkscape:window-y="27"
     inkscape:window-maximized="1"
     inkscape:snap-to-guides="false"
     inkscape:snap-nodes="true">
    <inkscape:grid
       type="xygrid"
       id="grid3044"
       empspacing="2"
       visible="true"
       enabled="true"
       snapvisiblegridlinesonly="true"
       spacingx="0.5px"
       spacingy="0.5px"
       originx="-0.5px"
       originy="-0.5px"
       empcolor="#000000"
       empopacity="0.25098039"
       dotted="false"
       color="#9c9cdb"
       opacity="0.1254902" />
  </sodipodi:namedview>
  <metadata
     id="metadata2998">
    <rdf:RDF>
      <cc:Work
         rdf:about="">
        <dc:format>image/svg+xml</dc:format>
        <dc:type
           rdf:resource="http://purl.org/dc/dcmitype/StillImage" />
        <dc:title>wolf3d icon</dc:title>
        <cc:license
           rdf:resource="http://www.gnu.org/licenses/gpl-2.0" />
        <dc:creator>
          <cc:Agent>
            <dc:title>Fabian Greffrath</dc:title>
          </cc:Agent>
        </dc:creator>
        <dc:date>5 Sep 2013</dc:date>
      </cc:Work>
    </rdf:RDF>
  </metadata>
  <g
     id="layer1"
     inkscape:label="Layer 1"
     inkscape:groupmode="layer">
    <path
       style="fill:url(#linearGradient3019);fill-opacity:1;fill-rule:nonzero;stroke:#000000;stroke-width:0.97799999;stroke-linecap:butt;stroke-linejoin:bevel;stroke-miterlimit:4;stroke-opacity:1;stroke-dasharray:none"
       d="m 8.5,0.5 7,5 0,20 2,-7 5,0 0,7 2,-3 0,-13 c 0,0 -1.639203,1.128958 -2,2 -0.382683,0.92388 -0.382683,2.07612 0,3 0.180399,0.435521 1,1 1,1 l -1,1.5 c 0,0 -3.267908,-1.88664 -4,-3.5 -0.826433,-1.821266 -0.848311,-4.1888212 0,-6 1.104253,-2.3576265 6,-5 6,-5 l 7,5 0,15 -7,9 -5,0 0,-5 -3,5 -10,0 2,-3 0,-21 c 0,0 -2.4588039,1.693437 -3,3 -0.5102446,1.231839 -0.5102446,2.768161 0,4 0.3607974,0.871042 2,2 2,2 l -2,2 c 0,0 -3.2935071,-2.985944 -4,-5 -0.66201388,-1.887257 -0.76536686,-4.1522409 0,-6 1.2627909,-3.0486469 7,-7 7,-7 z"
       id="path3083"
       inkscape:connector-curvature="0"
       sodipodi:nodetypes="ccccccccaaccaaccccccccccaaccaac" />
  </g>
</svg>
